<?xml version="1.0" encoding="UTF-8" standalone="no"?>
<svg
   xmlns:dc="http://purl.org/dc/elements/1.1/"
   xmlns:cc="http://creativecommons.org/ns#"
   xmlns:rdf="http://www.w3.org/1999/02/22-rdf-syntax-ns#"
   xmlns:svg="http://www.w3.org/2000/svg"
   xmlns="http://www.w3.org/2000/svg"
   xmlns:sodipodi="http://sodipodi.sourceforge.net/DTD/sodipodi-0.dtd"
   xmlns:inkscape="http://www.inkscape.org/namespaces/inkscape"
   width="11in"
   height="8.5in"
   viewBox="0 0 279.4 215.9"
   version="1.1"
   id="svg1219"
   inkscape:version="1.0.2 (e86c870879, 2021-01-15)"
   sodipodi:docname="le trucker.svg">
  <defs
     id="defs1213" />
  <sodipodi:namedview
     id="base"
     pagecolor="#ffffff"
     bordercolor="#666666"
     borderopacity="1.0"
     inkscape:pageopacity="0.0"
     inkscape:pageshadow="2"
     inkscape:zoom="1.003475"
     inkscape:cx="787.25917"
     inkscape:cy="540.52782"
     inkscape:document-units="mm"
     inkscape:current-layer="layer1"
     inkscape:document-rotation="0"
     showgrid="false"
     units="in"
     inkscape:window-width="2560"
     inkscape:window-height="1355"
     inkscape:window-x="0"
     inkscape:window-y="48"
     inkscape:window-maximized="1"
     inkscape:pagecheckerboard="true" />
  <metadata
     id="metadata1216">
    <rdf:RDF>
      <cc:Work
         rdf:about="">
        <dc:format>image/svg+xml</dc:format>
        <dc:type
           rdf:resource="http://purl.org/dc/dcmitype/StillImage" />
        <dc:title></dc:title>
      </cc:Work>
    </rdf:RDF>
  </metadata>
  <g
     inkscape:label="Le Trucker"
     inkscape:groupmode="layer"
     id="layer1">
    <g
       id="g1902"
       style="stroke:#c0c0c0;stroke-opacity:1;stroke-width:0.26458333;stroke-miterlimit:4;stroke-dasharray:none;fill:#c0c0c0;fill-opacity:1">
      <g
         id="g1094"
         transform="matrix(0.82962518,0,0,0.82962518,4.8024134,48.28504)"
         style="fill:#c0c0c0;fill-opacity:1;stroke:#c0c0c0;stroke-opacity:1;stroke-width:0.31891912;stroke-miterlimit:4;stroke-dasharray:none">
        <path
           style="fill:#c0c0c0;fill-opacity:1;stroke:#c0c0c0;stroke-width:0.31891912;stroke-linecap:butt;stroke-linejoin:miter;stroke-opacity:1;stroke-miterlimit:4;stroke-dasharray:none"
           d="m 11.098728,81.195667 c 0,0 1.68008,-0.170084 3.481109,-0.592803 1.801029,-0.422718 3.674132,-1.012045 4.606058,-1.763256 0.931924,-0.751209 2.585428,-1.843537 3.167919,-3.378768 0.582492,-1.535231 1.160878,-3.111156 1.374756,-3.803085 0.530503,-2.331529 1.397685,-5.759417 2.789601,-7.500851 1.205514,-1.444836 2.773979,-3.235878 4.10124,-3.904577 2.045831,-1.03073 3.085361,-1.075987 3.767972,-1.111259 0.68261,-0.03527 2.871935,-0.06485 3.349099,0.01595 0.47716,0.0808 1.442424,0.307017 1.911891,0.853447 0.469468,0.546431 0.851706,1.060567 0.924213,1.777527 0.118269,1.34377 0.28982,2.64136 -5.62e-4,4.121976 0,0 -0.386546,1.284025 -0.486081,1.519783 -0.344961,0.817073 -0.714622,1.804682 -0.714622,1.804682 l -3.117613,-0.01297 c 0.511706,-1.306981 0.659869,-2.018353 0.802434,-2.848123 0.12639,-0.73732 0.126356,-2.181559 0.126356,-2.181559 0.01111,-0.417015 -0.243939,-0.845078 -0.364591,-1.007056 -0.537965,-0.721131 -1.119462,-0.561973 -1.716698,-0.50181 -0.237399,0.03154 -1.941153,0.447557 -1.941153,0.447557 -1.59021,0.904042 -2.642924,1.676928 -3.82555,3.376504 -0.663663,1.094931 -1.41323,2.139735 -1.752355,3.404256 -0.780469,2.00474 -0.917866,4.531972 -1.667184,6.243795 -0.321191,0.701145 -0.565944,1.424909 -0.910068,2.032823 -0.344122,0.607915 -0.999475,1.169141 -1.348414,1.678486 -0.348939,0.509344 -1.452556,1.262289 -1.452556,1.262289 l 29.202225,-0.135258 c 0,0 -0.202638,-0.369814 0.149035,0.17841 0.351673,0.548223 0.459923,1.152988 0.459923,1.152988 l 0.01641,0.499327 -0.01977,1.221102 -42.1171427,0.09135 0.2060667,-0.651238 z"
           id="path1013"
           sodipodi:nodetypes="csssccssssccscccsccccccssccscccccc" />
        <path
           style="fill:#c0c0c0;fill-opacity:1;stroke:#c0c0c0;stroke-width:0.31891912;stroke-linecap:butt;stroke-linejoin:miter;stroke-opacity:1;stroke-miterlimit:4;stroke-dasharray:none"
           d="m 83.114671,81.8171 c 0,0 0.08715,0.731857 0.02708,1.090459 -0.06257,0.373314 -0.01805,1.063354 -0.396588,1.064042 -6.315353,0.01147 -18.186024,0.181383 -27.878397,0.204689 -1.720766,-0.34688 -1.835565,-1.003533 -3.460586,-3.182928 -0.503494,-0.961033 -0.29198,-3.756549 0.113084,-4.816467 0.815176,-2.13304 2.395472,-5.692991 2.395472,-5.692991 h 9.998034 c 0,0 1.60657,0.07575 1.645936,0.703581 0.02454,0.391315 0.111063,2.622718 -0.108435,2.912279 -0.39105,0.51587 -4.059554,3.505704 -5.85852,4.9204 -0.313294,0.246372 -1.151589,0.535713 -1.151589,0.535713 l -1.885061,-2.028988 c -0.114961,-0.123739 0.413911,-0.731828 0.413911,-0.731828 0.89608,-0.584957 3.904388,-2.228718 4.878228,-2.887473 0.409417,-0.276951 0.69439,-1.128918 0.304383,-1.129738 -1.882557,-0.004 -3.211364,0.02847 -5.838364,0.058 -0.809914,0.0091 -1.103619,1.315496 -1.405486,2.207889 -0.38004,0.945216 -1.406894,3.083107 -1.067003,4.813557 0.29941,0.850528 1.26863,1.779918 2.304091,1.800122 2.125898,0.04148 26.969814,0.159681 26.969814,0.159681 z"
           id="path1015"
           sodipodi:nodetypes="cssccsccssscsssssccsc" />
      </g>
      <g
         id="g1064"
         transform="matrix(0.63456121,0,0,0.63456121,70.905154,24.724094)"
         style="fill:#c0c0c0;fill-opacity:1;stroke:#c0c0c0;stroke-opacity:1;stroke-width:0.41695479;stroke-miterlimit:4;stroke-dasharray:none">
        <path
           style="fill:#c0c0c0;fill-opacity:1;stroke:#c0c0c0;stroke-width:0.41695479;stroke-linecap:butt;stroke-linejoin:miter;stroke-opacity:1;stroke-miterlimit:4;stroke-dasharray:none"
           d="m 48.771782,144.65029 17.93674,-0.1446 c 0,0 0.58995,-1.4e-4 0.70936,-0.31016 0.11941,-0.31001 5.37753,-17.14852 5.37753,-17.14852 l 3.10907,0.0395 -0.89139,3.13852 16.58199,0.0794 -0.12185,1.36621 c 0,0 -0.0833,1.12997 -0.48261,1.47426 -0.39928,0.34428 -2.0362,0.31578 -2.0362,0.31578 l -1.83668,-0.0252 -0.86508,1.06974 c -1.05941,2.19328 -1.93769,5.45849 -2.52333,8.11477 0.0611,0.58183 -0.0907,1.00921 0.84594,1.52957 0.93667,0.52035 1.53702,0.96028 3.06722,0.9797 0.89281,0.0113 20.196568,-0.51539 20.196568,-0.51539 l 0.68694,3.2407 -24.206948,0.0803 c 0,0 -1.83479,-0.18716 -2.70237,-1.25611 -0.93153,-1.14773 -1.17762,-1.97055 -0.98843,-4.12859 0.17455,-1.99096 1.11687,-5.39957 1.326,-6.04387 0.20914,-0.6443 0.9554,-3.06198 0.9554,-3.06198 l -8.44132,-0.0972 c 0,0 -0.45845,0.27151 -0.55309,0.51241 -0.0947,0.2409 -3.21061,11.32144 -3.21061,11.32144 0,0 -0.49923,2.69872 -2.64914,2.82596 -2.1499,0.12724 -19.36599,-0.0206 -19.36599,-0.0206 0.005,-1.1124 0.0501,-2.2242 0.0823,-3.33606 z"
           id="path1017"
           sodipodi:nodetypes="ccscccccsccccsscccsssccccsccc" />
        <path
           style="fill:#c0c0c0;fill-opacity:1;stroke:#c0c0c0;stroke-width:0.41695479;stroke-linecap:butt;stroke-linejoin:miter;stroke-opacity:1;stroke-miterlimit:4;stroke-dasharray:none"
           d="m 30.664888,128.00415 4.481602,-0.52603 c 0,0 -1.494471,-2.47532 -1.519396,-4.89901 0.03242,-1.9521 -0.04729,-2.70192 0.523737,-3.22936 1.403933,-0.13915 6.502572,-0.40123 8.694628,-0.52039 1.54298,-0.0839 11.43841,-0.43443 11.43841,-0.43443 -0.910295,3.78878 -2.706982,14.60202 -8.098982,20.36275 -2.101836,1.65807 -5.173616,3.06446 -13.002108,4.08095 -3.269051,0.2925 -14.596143,0.37771 -14.596143,0.37771 -0.548403,1.4941 -0.798616,2.25474 -1.574078,3.7919 6.172073,0.92666 15.285268,0.43608 19.892713,-0.28651 6.703775,-1.13654 7.630841,-0.68053 12.65905,-4.91548 1.800841,-1.51674 3.250147,-3.93597 4.220059,-6.98325 0.969912,-3.04728 3.790672,-12.23083 3.790672,-12.23083 l 2.561561,-8.53804 c 0.108383,-0.003 -6.101348,-0.0639 -11.984061,0.0772 -5.951325,0.14272 -10.861163,0.30502 -15.201873,0.86817 -1.029614,0.13358 -0.858383,0.26659 -1.849036,0.67782 -2.22423,2.0474 -1.799306,2.64196 -2.051219,5.10129 -0.110881,1.10926 0.0082,3.20279 0.573982,4.66312 0.488127,1.25985 1.040482,2.56243 1.040482,2.56243 z"
           id="path1025"
           sodipodi:nodetypes="ccccsccccccssccssccscc" />
        <path
           style="fill:#c0c0c0;fill-opacity:1;stroke:#c0c0c0;stroke-width:0.41695479;stroke-linecap:butt;stroke-linejoin:miter;stroke-opacity:1;stroke-miterlimit:4;stroke-dasharray:none"
           d="m 110.44017,129.6304 c -1.40405,3.88733 -4.44433,11.56916 -4.2329,13.91052 0.1373,2.28457 1.653,4.28626 4.00326,4.39398 2.33087,-0.49252 4.15102,-1.61207 5.2875,-2.59599 1.74929,-1.51448 7.76104,-7.4869 7.76104,-7.4869 -1.0394,4.39418 -1.2276,4.67692 -1.32465,7.31113 0.29886,1.68385 1.09081,2.5882 2.64317,2.65395 2.22776,0.0944 23.3579,-0.11364 23.3579,-0.11364 l 0.40727,-0.90267 c 0.2362,-0.52351 0.76478,-0.34785 1.72256,-0.0387 2.33711,0.52385 3.25062,0.87258 6.68486,0.91038 6.14812,-0.0238 27.87511,-0.0431 27.87511,-0.0431 l 10.73153,-30.60063 -3.46969,-0.0317 -9.72292,26.95412 -27.25823,0.37693 c -2.85964,-0.0593 -4.73776,-0.75617 -4.68513,-3.20574 0.0526,-2.44957 1.0315,-6.44402 2.55184,-7.65474 1.13443,-0.9034 3.14626,-0.53194 6.43,-0.49941 1.95192,-0.0298 2.77858,0.0109 2.57799,0.61148 -0.20001,0.5989 -1.15214,3.61882 -1.15214,3.61882 l 2.99721,0.0794 c 0.84683,-1.94488 2.21207,-3.93324 1.33182,-6.30147 -0.2639,-0.59772 -0.70941,-1.20461 -1.95173,-1.20649 -1.24231,-0.002 -12.99853,0.0727 -12.99853,0.0727 -1.54821,3.21174 -2.01411,4.74688 -2.83851,8.93298 -0.47585,3.07548 0.60401,5.57469 0.60401,5.57469 l -20.92456,0.33251 c 0,0 -1.19008,0.12505 -1.36205,-0.22051 -0.17197,-0.34556 0.0527,-1.51354 0.14936,-1.98831 0.0966,-0.47477 4.42644,-12.83163 4.42644,-12.83163 l -3.55525,-0.0858 -5.12803,5.85134 -8.43897,8.37547 c 0,0 -2.41511,1.75945 -3.3244,1.26794 -0.90928,-0.49152 -0.40886,-2.50277 -0.40886,-2.50277 l 5.00453,-12.94765 z"
           id="path1027"
           sodipodi:nodetypes="cccsccscsccccccczscsccczccccssccccsccc" />
        <path
           style="fill:#c0c0c0;fill-opacity:1;stroke:#c0c0c0;stroke-width:0.41695479;stroke-linecap:butt;stroke-linejoin:miter;stroke-opacity:1;stroke-miterlimit:4;stroke-dasharray:none"
           d="m 264.26958,144.99305 c 1.42955,-0.0548 5.34903,-12.44849 6.92073,-17.72236 l 3.10907,0.0395 -0.89139,3.13852 16.58199,0.0794 -0.12185,1.36621 c 0,0 -0.0833,1.12997 -0.48261,1.47426 -0.39928,0.34428 -2.0362,0.31578 -2.0362,0.31578 l -1.83668,-0.0252 -0.86508,1.06974 c -1.05941,2.19328 -1.93769,5.45849 -2.52333,8.11477 0.0611,0.58183 -0.0907,1.00921 0.84594,1.52956 0.93667,0.52036 1.53702,0.96029 3.06722,0.97971 0.89281,0.0113 22.01294,-0.30849 22.01294,-0.30849 l -1.12943,3.0338 -24.20695,0.0803 c 0,0 -1.83479,-0.18716 -2.70237,-1.25611 -0.93153,-1.14773 -1.17762,-1.97055 -0.98843,-4.12859 0.17455,-1.99096 1.11687,-5.39957 1.326,-6.04387 0.20914,-0.6443 0.9554,-3.06198 0.9554,-3.06198 l -8.44132,-0.0972 c 0,0 -0.45845,0.27151 -0.55309,0.51241 -0.0947,0.2409 -3.09679,11.43058 -3.09679,11.43058 0,0 -0.61001,2.6609 -2.76296,2.71682 -3.35093,0.087 -19.4385,0.008 -19.4385,0.008 0.0197,-1.39261 0.008,-2.092 0.0322,-3.24875 5.4891,-0.028 10.7399,0.001 16.27223,0.0397 z"
           id="path1017-3"
           sodipodi:nodetypes="scccccsccccsscccsssccccscccs" />
        <path
           style="fill:#c0c0c0;fill-opacity:1;stroke:#c0c0c0;stroke-width:0.41695479;stroke-linecap:butt;stroke-linejoin:miter;stroke-opacity:1;stroke-miterlimit:4;stroke-dasharray:none"
           d="m 201.35724,128.36552 2.15281,1.59189 -6.3704,5.74757 c 1.50736,-0.0797 3.85718,-0.43247 4.46817,0.75291 1.05152,4.44719 -0.7111,4.12139 -1.36553,7.99155 2.87686,-0.13139 17.03611,0.35674 27.76829,0.47363 -0.38211,-2.11631 -0.54667,-4.1632 0.57446,-7.93341 1.13413,-3.81391 2.2893,-6.35728 2.2893,-6.35728 0,0 4.66899,-0.0567 6.98087,0.0155 6.10376,0.0881 6.28572,-0.22314 7.42887,0.71522 1.07142,1.171 1.38829,3.76956 -0.53212,6.44015 -2.7947,1.95684 -7.42677,4.91612 -7.42677,4.91612 l -2.55682,-2.89189 6.09566,-4.1734 c 0.9012,-0.6973 0.95345,-0.4707 0.97472,-1.55748 l -8.16089,-0.10052 -1.34623,2.80528 c 0,0 -1.41367,2.80356 -1.15943,4.69431 0.24111,1.7931 0.23338,3.53383 4.24427,3.54393 5.22565,0.0131 11.39584,-0.0487 11.39584,-0.0487 l -0.0566,3.22789 c 0,0 -9.72936,-0.009 -15.36236,-0.009 -0.67387,-1e-5 -1.69887,-1.0958 -1.69887,-1.0958 0,0 -0.1329,1.0958 -0.54013,1.0958 -10.94317,4e-5 -30.7034,0 -30.7034,0 0,0 -3.26514,-3.14272 -1.20739,-6.01866 0.78753,-1.23863 1.9079,-2.17963 1.38374,-2.73725 -0.52416,-0.55762 -4.10544,-0.18135 -4.10544,-0.18135 0,0 -1.31852,0.5607 -2.72478,-1.72336 0.88741,-3.87259 5.71086,-6.34311 9.56016,-9.18396 z"
           id="path1049"
           sodipodi:nodetypes="ccccccsccccccccccssccscsccscccc" />
      </g>
    </g>
  </g>
</svg>
